<mxfile host="Electron" agent="Mozilla/5.0 (X11; Linux x86_64) AppleWebKit/537.36 (KHTML, like Gecko) draw.io/26.2.2 Chrome/134.0.6998.178 Electron/35.1.2 Safari/537.36" version="26.2.2">
  <diagram name="Page-1" id="4pJjC9Qg1J32eKeOlhUU">
    <mxGraphModel dx="1182" dy="706" grid="1" gridSize="10" guides="1" tooltips="1" connect="1" arrows="1" fold="1" page="1" pageScale="1" pageWidth="1169" pageHeight="827" math="0" shadow="0">
      <root>
        <mxCell id="0" />
        <mxCell id="1" parent="0" />
        <mxCell id="N7Ri_mD_c3Wh3fdWuei0-22" style="edgeStyle=orthogonalEdgeStyle;rounded=0;orthogonalLoop=1;jettySize=auto;html=1;exitX=1;exitY=0.25;exitDx=0;exitDy=0;entryX=0;entryY=0.25;entryDx=0;entryDy=0;" parent="1" source="N7Ri_mD_c3Wh3fdWuei0-1" target="N7Ri_mD_c3Wh3fdWuei0-2" edge="1">
          <mxGeometry relative="1" as="geometry" />
        </mxCell>
        <mxCell id="N7Ri_mD_c3Wh3fdWuei0-1" value="Robot" style="rounded=1;whiteSpace=wrap;html=1;fontStyle=1;fontSize=16;" parent="1" vertex="1">
          <mxGeometry x="230" y="160" width="140" height="80" as="geometry" />
        </mxCell>
        <mxCell id="N7Ri_mD_c3Wh3fdWuei0-16" style="edgeStyle=orthogonalEdgeStyle;rounded=0;orthogonalLoop=1;jettySize=auto;html=1;exitX=1;exitY=0.5;exitDx=0;exitDy=0;entryX=0.5;entryY=0;entryDx=0;entryDy=0;" parent="1" source="N7Ri_mD_c3Wh3fdWuei0-2" target="N7Ri_mD_c3Wh3fdWuei0-3" edge="1">
          <mxGeometry relative="1" as="geometry" />
        </mxCell>
        <mxCell id="N7Ri_mD_c3Wh3fdWuei0-17" style="edgeStyle=orthogonalEdgeStyle;rounded=0;orthogonalLoop=1;jettySize=auto;html=1;exitX=1;exitY=0.5;exitDx=0;exitDy=0;entryX=0;entryY=0.5;entryDx=0;entryDy=0;" parent="1" source="N7Ri_mD_c3Wh3fdWuei0-2" target="N7Ri_mD_c3Wh3fdWuei0-4" edge="1">
          <mxGeometry relative="1" as="geometry">
            <Array as="points">
              <mxPoint x="690" y="200" />
              <mxPoint x="690" y="200" />
            </Array>
          </mxGeometry>
        </mxCell>
        <mxCell id="N7Ri_mD_c3Wh3fdWuei0-23" style="edgeStyle=orthogonalEdgeStyle;rounded=0;orthogonalLoop=1;jettySize=auto;html=1;exitX=0;exitY=0.75;exitDx=0;exitDy=0;entryX=1;entryY=0.75;entryDx=0;entryDy=0;" parent="1" source="N7Ri_mD_c3Wh3fdWuei0-2" target="N7Ri_mD_c3Wh3fdWuei0-1" edge="1">
          <mxGeometry relative="1" as="geometry" />
        </mxCell>
        <mxCell id="N7Ri_mD_c3Wh3fdWuei0-2" value="gh360" style="rounded=1;whiteSpace=wrap;html=1;fontStyle=1;fontSize=16;" parent="1" vertex="1">
          <mxGeometry x="490" y="160" width="140" height="80" as="geometry" />
        </mxCell>
        <mxCell id="N7Ri_mD_c3Wh3fdWuei0-15" style="edgeStyle=orthogonalEdgeStyle;rounded=0;orthogonalLoop=1;jettySize=auto;html=1;exitX=0;exitY=0.5;exitDx=0;exitDy=0;entryX=0.5;entryY=1;entryDx=0;entryDy=0;" parent="1" source="N7Ri_mD_c3Wh3fdWuei0-3" target="N7Ri_mD_c3Wh3fdWuei0-2" edge="1">
          <mxGeometry relative="1" as="geometry" />
        </mxCell>
        <mxCell id="N7Ri_mD_c3Wh3fdWuei0-3" value="gh360_control" style="rounded=1;whiteSpace=wrap;html=1;fontStyle=1;fontSize=16;" parent="1" vertex="1">
          <mxGeometry x="630" y="280" width="140" height="80" as="geometry" />
        </mxCell>
        <mxCell id="N7Ri_mD_c3Wh3fdWuei0-13" style="edgeStyle=orthogonalEdgeStyle;rounded=0;orthogonalLoop=1;jettySize=auto;html=1;entryX=1;entryY=0.5;entryDx=0;entryDy=0;exitX=0.5;exitY=1;exitDx=0;exitDy=0;" parent="1" source="N7Ri_mD_c3Wh3fdWuei0-4" target="N7Ri_mD_c3Wh3fdWuei0-3" edge="1">
          <mxGeometry relative="1" as="geometry" />
        </mxCell>
        <mxCell id="N7Ri_mD_c3Wh3fdWuei0-4" value="gh360_gym" style="rounded=1;whiteSpace=wrap;html=1;fontStyle=1;fontSize=16;" parent="1" vertex="1">
          <mxGeometry x="780" y="160" width="140" height="80" as="geometry" />
        </mxCell>
        <mxCell id="N7Ri_mD_c3Wh3fdWuei0-6" style="edgeStyle=orthogonalEdgeStyle;rounded=0;orthogonalLoop=1;jettySize=auto;html=1;entryX=1;entryY=0.5;entryDx=0;entryDy=0;endArrow=classic;endFill=1;startArrow=classic;startFill=1;" parent="1" source="N7Ri_mD_c3Wh3fdWuei0-5" target="N7Ri_mD_c3Wh3fdWuei0-4" edge="1">
          <mxGeometry relative="1" as="geometry" />
        </mxCell>
        <mxCell id="N7Ri_mD_c3Wh3fdWuei0-5" value="RL Algorithm" style="rounded=1;whiteSpace=wrap;html=1;fontStyle=1;fontSize=16;" parent="1" vertex="1">
          <mxGeometry x="970" y="160" width="140" height="80" as="geometry" />
        </mxCell>
        <mxCell id="N7Ri_mD_c3Wh3fdWuei0-7" value="" style="endArrow=none;dashed=1;html=1;rounded=0;curved=0;strokeColor=#00A806;strokeWidth=3;exitX=0.75;exitY=1;exitDx=0;exitDy=0;entryX=0.75;entryY=0;entryDx=0;entryDy=0;" parent="1" edge="1" target="N7Ri_mD_c3Wh3fdWuei0-4" source="N7Ri_mD_c3Wh3fdWuei0-4">
          <mxGeometry width="50" height="50" relative="1" as="geometry">
            <mxPoint x="520" y="480" as="sourcePoint" />
            <mxPoint x="520" y="400" as="targetPoint" />
            <Array as="points">
              <mxPoint x="885" y="260" />
              <mxPoint x="1120" y="260" />
              <mxPoint x="1120" y="130" />
              <mxPoint x="885" y="130" />
            </Array>
          </mxGeometry>
        </mxCell>
        <mxCell id="N7Ri_mD_c3Wh3fdWuei0-14" value="Gym Interface" style="text;html=1;align=center;verticalAlign=middle;resizable=0;points=[];autosize=1;strokeColor=none;fillColor=none;fontColor=#00A806;fontStyle=1;fontSize=16;" parent="1" vertex="1">
          <mxGeometry x="1000" y="130" width="120" height="30" as="geometry" />
        </mxCell>
        <mxCell id="N7Ri_mD_c3Wh3fdWuei0-18" value="robot state" style="text;html=1;align=center;verticalAlign=middle;resizable=0;points=[];autosize=1;strokeColor=none;fillColor=none;" parent="1" vertex="1">
          <mxGeometry x="670" y="170" width="80" height="30" as="geometry" />
        </mxCell>
        <mxCell id="N7Ri_mD_c3Wh3fdWuei0-20" value="control&lt;br&gt;commands" style="text;html=1;align=center;verticalAlign=middle;resizable=0;points=[];autosize=1;strokeColor=none;fillColor=none;" parent="1" vertex="1">
          <mxGeometry x="770" y="280" width="80" height="40" as="geometry" />
        </mxCell>
        <mxCell id="N7Ri_mD_c3Wh3fdWuei0-21" value="motor&lt;br&gt;commands" style="text;html=1;align=center;verticalAlign=middle;resizable=0;points=[];autosize=1;strokeColor=none;fillColor=none;" parent="1" vertex="1">
          <mxGeometry x="555" y="284" width="80" height="40" as="geometry" />
        </mxCell>
        <mxCell id="N7Ri_mD_c3Wh3fdWuei0-24" value="motor commands" style="text;html=1;align=center;verticalAlign=middle;resizable=0;points=[];autosize=1;strokeColor=none;fillColor=none;fontSize=12;" parent="1" vertex="1">
          <mxGeometry x="370" y="220" width="120" height="30" as="geometry" />
        </mxCell>
        <mxCell id="N7Ri_mD_c3Wh3fdWuei0-26" value="sensor data" style="text;html=1;align=center;verticalAlign=middle;resizable=0;points=[];autosize=1;strokeColor=none;fillColor=none;fontSize=12;" parent="1" vertex="1">
          <mxGeometry x="385" y="150" width="90" height="30" as="geometry" />
        </mxCell>
        <mxCell id="N7Ri_mD_c3Wh3fdWuei0-34" value="" style="endArrow=none;dashed=1;html=1;rounded=0;curved=0;strokeColor=#0B00A8;strokeWidth=3;exitX=0.714;exitY=1;exitDx=0;exitDy=0;entryX=0.25;entryY=1;entryDx=0;entryDy=0;exitPerimeter=0;" parent="1" source="N7Ri_mD_c3Wh3fdWuei0-4" target="N7Ri_mD_c3Wh3fdWuei0-2" edge="1">
          <mxGeometry width="50" height="50" relative="1" as="geometry">
            <mxPoint x="810" y="150" as="sourcePoint" />
            <mxPoint x="750" y="450" as="targetPoint" />
            <Array as="points">
              <mxPoint x="880" y="370" />
              <mxPoint x="525" y="370" />
            </Array>
          </mxGeometry>
        </mxCell>
        <mxCell id="N7Ri_mD_c3Wh3fdWuei0-35" value="ROS2" style="text;html=1;align=center;verticalAlign=middle;resizable=0;points=[];autosize=1;strokeColor=none;fillColor=none;fontColor=#0B00A8;fontStyle=1;fontSize=16;" parent="1" vertex="1">
          <mxGeometry x="810" y="130" width="70" height="30" as="geometry" />
        </mxCell>
        <mxCell id="N7Ri_mD_c3Wh3fdWuei0-36" value="" style="endArrow=none;dashed=1;html=1;rounded=0;curved=0;strokeColor=#C90B00;strokeWidth=3;exitX=0.213;exitY=0.997;exitDx=0;exitDy=0;exitPerimeter=0;" parent="1" source="N7Ri_mD_c3Wh3fdWuei0-2" edge="1">
          <mxGeometry width="50" height="50" relative="1" as="geometry">
            <mxPoint x="429.76" y="256" as="sourcePoint" />
            <mxPoint x="520" y="160" as="targetPoint" />
            <Array as="points">
              <mxPoint x="520" y="260" />
              <mxPoint x="220" y="260" />
              <mxPoint x="220" y="200" />
              <mxPoint x="220" y="130" />
              <mxPoint x="360" y="130" />
              <mxPoint x="520" y="130" />
            </Array>
          </mxGeometry>
        </mxCell>
        <mxCell id="N7Ri_mD_c3Wh3fdWuei0-37" value="RS-485 / SPI" style="text;html=1;align=center;verticalAlign=middle;resizable=0;points=[];autosize=1;strokeColor=none;fillColor=none;fontColor=#C90B00;fontStyle=1;fontSize=16;" parent="1" vertex="1">
          <mxGeometry x="220" y="130" width="120" height="30" as="geometry" />
        </mxCell>
        <mxCell id="jL5VY4ZHj_sI5JTQTYHx-3" value="" style="endArrow=none;dashed=1;html=1;rounded=0;curved=0;strokeColor=#0B00A8;strokeWidth=3;exitX=0.25;exitY=0;exitDx=0;exitDy=0;entryX=0.716;entryY=-0.005;entryDx=0;entryDy=0;entryPerimeter=0;" edge="1" parent="1" source="N7Ri_mD_c3Wh3fdWuei0-2" target="N7Ri_mD_c3Wh3fdWuei0-4">
          <mxGeometry width="50" height="50" relative="1" as="geometry">
            <mxPoint x="620" y="70" as="sourcePoint" />
            <mxPoint x="620" y="150" as="targetPoint" />
            <Array as="points">
              <mxPoint x="525" y="130" />
              <mxPoint x="740" y="130" />
              <mxPoint x="860" y="130" />
              <mxPoint x="880" y="130" />
            </Array>
          </mxGeometry>
        </mxCell>
      </root>
    </mxGraphModel>
  </diagram>
</mxfile>
